# xmcd
#
# Track frame offsets: 
#        150
#        19200
#        36479
#        52023
#        69579
#        86962
#        104609
#        120111
#        136503
#        153023
#        169144
#        187857
#        204017
#        222346
#
# Disc length: 3191 seconds
#
# Revision: 1
# Processed by: cddbd v1.5.2PL0 Copyright (c) Steve Scherf et al.
# Submitted via: ExactAudioCopy v1.1
#
DISCID=b80c750e
DTITLE=Ruben Studdard - The Return
DYEAR=2006
DGENRE=Soul
TTITLE0=The Return (Of the Velvet Teddy Bear)
TTITLE1=Change Me
TTITLE2=Make Ya Feel Beautiful
TTITLE3=Get U Loose
TTITLE4=Our Story
TTITLE5=One Side
TTITLE6=What Tha Business Is
TTITLE7=Rather Just Not Know
TTITLE8=Ain't No Party
TTITLE9=Listen To Ya Heart
TTITLE10=I'm Not Happy
TTITLE11=To Da Crib
TTITLE12=Blow Ya Mind (Bonus Track)
TTITLE13=If Only For One Night (Bonus Track)
EXTD=
EXTT0=
EXTT1=
EXTT2=
EXTT3=
EXTT4=
EXTT5=
EXTT6=
EXTT7=
EXTT8=
EXTT9=
EXTT10=
EXTT11=
EXTT12=
EXTT13=
PLAYORDER=
